<svg xmlns="http://www.w3.org/2000/svg" viewBox="0 0 286.55 76.08"><defs><style>.cls-1{fill:#fff;}</style></defs><title>Logo_Branco_Simples</title><g id="Camada_2" data-name="Camada 2"><g id="Camada_1-2" data-name="Camada 1"><path class="cls-1" d="M88.75,41.09,104.43,6.84c.41-.91.85-1.81,1.28-2.71,1.13-2.36,2.85-3.94,5.53-2.71,2.83,1.3,2.93,3.6,1.69,6.28C107,20.54,101.19,33.41,95.34,46.28c-2.34,5.14-4.44,10.4-7,15.42C83.87,70.26,77,75.49,67.07,76.06c-2.8.16-5.24-.45-5.43-3.68s2.12-4.09,4.88-4.49c9-1.29,15.21-7.1,17.17-15.76.43-1.87-.49-3.21-1.16-4.68Q74.3,29.29,66,11.13c-.48-1.06-.9-2.15-1.42-3.19-1.25-2.53-1.45-5,1.39-6.42,3.26-1.6,4.88.71,6.07,3.32q6.34,13.85,12.65,27.68C85.85,35,87.06,37.53,88.75,41.09Z"/><path class="cls-1" d="M149.31,50.75A25,25,0,0,1,124.5,25a25.16,25.16,0,1,1,50.32.68A25,25,0,0,1,149.31,50.75Zm.23-8.06a17.22,17.22,0,0,0,.26-34.44,17.07,17.07,0,0,0-17.14,17.11A17,17,0,0,0,149.54,42.69Z"/><path class="cls-1" d="M8.9,5.71C14.29,2.15,19.68-.18,26,0c12.13.37,23,9.8,24,21.9.69,7.94.37,16,.39,24,0,2.53-.91,4.77-3.91,4.79-3.22,0-4.24-2.22-4.27-5,0-6.49,0-13,0-19.49C42.07,15.87,35,8.36,25.31,8.31c-9.5-.05-16.65,7.08-17,17.22-.2,6.32,0,12.66-.06,19,0,2.95-.23,6.16-4.13,6.14S0,47.49,0,44.51v-37C0,4.51-.37,1,3.51.21S7.79,3,8.9,5.71Z"/><path class="cls-1" d="M227.22,45c-5.13,3.66-10.49,5.93-16.8,5.79-13-.3-24.06-10.42-24.69-23.42-.36-7.31-.08-14.66-.12-22,0-2.85,1-5.17,4.06-5.23s4.08,2.31,4.07,5.15c0,6.49-.07,13,0,19.48.16,10.32,7.31,17.82,16.91,17.86,9.88,0,17.07-7.47,17.2-18.06.07-6.33.05-12.66,0-19,0-2.8.73-5.29,3.82-5.41C235.16.09,236,2.74,236,5.71q0,19,0,38c0,2.81.48,6.08-3.26,6.9C228.8,51.43,228.28,48.07,227.22,45Z"/><path class="cls-1" d="M261.83,50.76c-3.66,0-7.33-.06-11,0-2.75.06-4.84-1.1-4.94-3.78-.12-3,2.14-4.29,5-4.3,6.5,0,13,0,19.5,0,5.09-.05,8.1-2.7,8-6.84s-2.9-6.28-7.91-6.39c-3.34-.08-6.68.09-10-.07-8.43-.4-14.75-6.72-14.76-14.59,0-8.17,6.49-14.57,15.07-14.73,4.5-.09,9,0,13.5,0,2.77,0,4.61,1.23,4.66,4s-1.77,4.15-4.53,4.17c-4.33,0-8.67-.07-13,0-4.75.12-7.29,2.41-7.32,6.36s2.59,6.39,7.21,6.56c3.66.14,7.33-.07,11,.12a14.56,14.56,0,0,1,14.25,15c-.11,8.17-6.28,14.27-14.72,14.47C268.5,50.82,265.17,50.76,261.83,50.76Z"/></g></g></svg>