<svg xmlns="http://www.w3.org/2000/svg" viewBox="0 0 364.85 396.82"><defs><style>.cls-1{fill:#fff;}</style></defs><title>Logo_Branco</title><g id="Camada_2" data-name="Camada 2"><g id="Camada_1-2" data-name="Camada 1"><path class="cls-1" d="M.1,198.42q0-96-.1-192C0,1.67.8,0,6.16,0Q182.38.27,358.6,0c5.15,0,6.25,1.38,6.25,6.36q-.23,192-.12,383.94c0,6.46,0,6.46-6.63,6.46q-174.72,0-349.44,0C-.6,396.75,0,398.1,0,388.39Q.21,293.41.1,198.42Zm356.26-.26V14.68c0-6.6,0-6.61-6.36-6.61H14.55c-6.43,0-6.43,0-6.43,6.68v367c0,6.67,0,6.69,6.5,6.69q167.73,0,335.45.11c5,0,6.43-1.26,6.41-6.37Q356.21,290.15,356.36,198.16Z"/><path class="cls-1" d="M111,136.85q0-39.24,0-78.47c0-7.67,1.88-11.22,6.84-13,5.66-2,9.84-.56,14.51,5.6q48,63.33,95.83,126.7c1.61,2.12,3.21,4.25,4.91,6.3,1.36,1.66,2.23,1.09,2.41-.8.14-1.49.08-3,.08-4.5q0-60.48-.05-121c0-5.25,1.2-9.65,6.08-12.17,6.5-3.36,14.38,1,15.43,8.36a27.91,27.91,0,0,1,.15,4q0,79.47.05,159c0,4.64-1,8.58-4.94,11.35-4.91,3.48-11,2.14-15.23-3.4q-26.64-35-53.21-70-23.58-31-47.21-62c-.87-1.14-1.44-3.33-2.93-3-2.15.5-1.1,2.82-1.1,4.29q-.09,59.73,0,119.46c0,1.83,0,3.67,0,5.5-.28,6.43-4.63,10.88-10.63,10.9-6.26,0-10.86-4.48-10.88-11.15-.09-25.16,0-50.32,0-75.48Z"/><path class="cls-1" d="M131.2,310.5l15.68-34.25c.41-.91.85-1.81,1.28-2.7,1.13-2.37,2.85-3.95,5.53-2.72,2.83,1.3,2.93,3.6,1.69,6.28-5.91,12.84-11.74,25.71-17.59,38.58-2.34,5.14-4.44,10.4-7,15.42-4.43,8.57-11.29,13.79-21.23,14.36-2.8.16-5.24-.45-5.43-3.68s2.12-4.09,4.88-4.49c9-1.29,15.21-7.1,17.17-15.76.43-1.87-.49-3.21-1.16-4.68q-8.24-18.17-16.53-36.32c-.48-1.06-.91-2.15-1.42-3.19-1.25-2.53-1.45-5,1.39-6.42,3.26-1.6,4.88.71,6.07,3.32q6.35,13.85,12.65,27.68C128.3,304.45,129.51,306.94,131.2,310.5Z"/><path class="cls-1" d="M191.76,320.16A25,25,0,0,1,167,294.42a25.16,25.16,0,1,1,50.32.68A25,25,0,0,1,191.76,320.16Zm.23-8.06a17.22,17.22,0,1,0-16.88-17.33A17.1,17.1,0,0,0,192,312.1Z"/><path class="cls-1" d="M51.35,275.12c5.39-3.56,10.78-5.89,17.06-5.7,12.13.37,23,9.8,24,21.9.69,7.94.37,16,.39,24,0,2.53-.91,4.77-3.91,4.8-3.22,0-4.24-2.23-4.27-5-.06-6.49,0-13,0-19.49-.08-10.3-7.19-17.81-16.84-17.86s-16.65,7.08-17,17.22c-.2,6.32,0,12.66-.06,19,0,2.95-.23,6.16-4.13,6.14s-4.12-3.17-4.12-6.15v-37c0-3-.38-6.49,3.5-7.32S50.24,272.39,51.35,275.12Z"/><path class="cls-1" d="M269.67,314.43c-5.13,3.67-10.49,5.93-16.8,5.79-13-.3-24.06-10.42-24.69-23.42-.36-7.31-.08-14.65-.12-22,0-2.85,1-5.17,4.05-5.23s4.09,2.32,4.08,5.15c0,6.49-.07,13,0,19.48.16,10.32,7.31,17.82,16.91,17.86,9.88.05,17.07-7.47,17.2-18.06.07-6.33.05-12.66,0-19,0-2.8.73-5.29,3.82-5.41,3.46-.13,4.27,2.52,4.27,5.49q0,19,0,38c0,2.81.48,6.08-3.26,6.9C271.25,320.84,270.73,317.48,269.67,314.43Z"/><path class="cls-1" d="M304.28,320.17c-3.66,0-7.33-.06-11,0-2.75.06-4.84-1.1-4.94-3.78-.12-3,2.14-4.29,5-4.3,6.5,0,13,0,19.5,0,5.09-.05,8.1-2.7,8-6.84s-2.9-6.28-7.92-6.39c-3.33-.08-6.67.09-10-.07-8.43-.4-14.75-6.71-14.76-14.59,0-8.17,6.49-14.57,15.07-14.73,4.5-.09,9,0,13.5,0,2.77,0,4.61,1.23,4.66,4s-1.77,4.15-4.53,4.17c-4.33,0-8.67-.07-13,0-4.75.11-7.29,2.4-7.32,6.35s2.59,6.39,7.21,6.56c3.66.14,7.33-.07,11,.12a14.56,14.56,0,0,1,14.25,15c-.11,8.17-6.28,14.27-14.72,14.47C311,320.23,307.61,320.17,304.28,320.17Z"/></g></g></svg>